<svg width="25" height="25" viewBox="0 0 25 25" fill="none" xmlns="http://www.w3.org/2000/svg">
<path fill-rule="evenodd" clip-rule="evenodd" d="M4.09459 8.9986L5.35137 9.64364C4.8992 10.5422 4.66537 11.5157 4.66518 12.5002C4.66498 13.4847 4.89843 14.4582 5.35025 15.357L4.09459 16.0015C3.65488 15.6586 3.0926 15.4658 2.50797 15.4574C1.92334 15.449 1.35435 15.6256 0.902439 15.9557C0.450524 16.2857 0.145048 16.7478 0.0404629 17.2596C-0.0641221 17.7714 0.0389808 18.2996 0.331393 18.75C0.623806 19.2005 1.08652 19.5439 1.63707 19.7191C2.18761 19.8943 2.7902 19.8899 3.33742 19.7066C3.88464 19.5234 4.34093 19.1732 4.62496 18.7185C4.90898 18.2639 5.00229 17.7342 4.88823 17.2241L6.14502 16.5785C6.79301 17.376 7.62309 18.0427 8.58086 18.5349C9.53863 19.0271 10.6025 19.3337 11.7027 19.4347V20.7268C11.1492 20.8943 10.6805 21.2313 10.3803 21.6777C10.08 22.1241 9.96769 22.6508 10.0633 23.1639C10.159 23.6771 10.4564 24.1434 10.9025 24.4797C11.3486 24.8159 11.9145 25.0003 12.4992 25C13.0839 25.0003 13.6498 24.8159 14.0959 24.4797C14.542 24.1434 14.8394 23.6771 14.9351 23.1639C15.0307 22.6508 14.9184 22.1241 14.6181 21.6777C14.3179 21.2313 13.8492 20.8943 13.2956 20.7268V19.4347C14.3959 19.3345 15.4599 19.028 16.4174 18.5356C17.375 18.0431 18.2044 17.3758 18.8511 16.5775L20.1102 17.2241C19.9961 17.7345 20.0895 18.2644 20.3738 18.7193C20.658 19.1742 21.1146 19.5245 21.6622 19.7077C22.2097 19.891 22.8127 19.8953 23.3634 19.7199C23.9142 19.5444 24.3771 19.2007 24.6695 18.7499C24.9619 18.2992 25.0649 17.7707 24.96 17.2587C24.8552 16.7466 24.5493 16.2844 24.097 15.9543C23.6447 15.6242 23.0753 15.4478 22.4904 15.4564C21.9055 15.4651 21.343 15.6582 20.9032 16.0015L19.6465 15.356C20.0996 14.4576 20.334 13.4841 20.3342 12.4994C20.3344 11.5147 20.1004 10.5412 19.6476 9.64264L20.9032 8.9981C21.3428 9.34112 21.905 9.53412 22.4897 9.5427C23.0743 9.55128 23.6434 9.37487 24.0954 9.04494C24.5475 8.715 24.8531 8.25297 24.9579 7.74121C25.0627 7.22944 24.9598 6.70121 24.6675 6.25068C24.3752 5.80014 23.9126 5.45657 23.3621 5.28123C22.8116 5.10588 22.209 5.11015 21.6617 5.29327C21.1144 5.47639 20.658 5.82646 20.3739 6.28108C20.0897 6.7357 19.9962 7.26532 20.1102 7.77553L18.8534 8.42107C18.2055 7.62354 17.3754 6.95685 16.4176 6.46472C15.4598 5.97258 14.3959 5.66611 13.2956 5.56541V4.27284C13.8488 4.10507 14.3171 3.76805 14.6171 3.32181C14.9171 2.87558 15.0293 2.3491 14.9337 1.83615C14.8382 1.32319 14.541 0.85708 14.0952 0.520822C13.6494 0.184565 13.0839 0 12.4995 0C11.915 0 11.3495 0.184565 10.9037 0.520822C10.4579 0.85708 10.1608 1.32319 10.0652 1.83615C9.96964 2.3491 10.0818 2.87558 10.3818 3.32181C10.6818 3.76805 11.1501 4.10507 11.7033 4.27284V5.56591C10.6028 5.66553 9.5385 5.97155 8.58062 6.46377C7.62274 6.956 6.79301 7.62326 6.14614 8.42157L4.88879 7.77603C4.98923 7.32605 4.92881 6.85939 4.71602 6.44151C4.50323 6.02362 4.14874 5.67548 3.70227 5.4459C3.30932 5.24403 2.86143 5.14244 2.4078 5.15229C1.95418 5.16215 1.51239 5.28306 1.13099 5.50175C0.749586 5.72044 0.443334 6.02844 0.245893 6.39189C0.0484509 6.75535 -0.0325385 7.16019 0.0118255 7.56193C0.0561894 7.96367 0.224189 8.34675 0.497362 8.66908C0.770534 8.9914 1.1383 9.24049 1.56025 9.38897C1.9822 9.53745 2.44199 9.57957 2.8891 9.5107C3.33621 9.44183 3.75332 9.26464 4.09459 8.9986ZM12.4992 8.25306C13.9021 8.25306 14.6648 9.28962 14.6407 10.4602C14.6255 11.1867 14.2905 11.9743 13.5823 12.3818V12.4418C14.2107 12.4658 14.8767 12.6073 15.3708 12.9703C15.8868 13.3498 16.0976 13.8819 16.0976 14.4664V15.754H8.90084V14.4664C8.90084 13.8104 9.15545 13.3308 9.577 13.0003C10.0362 12.6408 10.6877 12.4683 11.4155 12.4418V12.3858C10.7034 11.9803 10.3701 11.2007 10.3549 10.4732C10.333 9.31812 11.0833 8.25306 12.4992 8.25306Z" fill="white"/>
</svg>
