<svg width="25" height="25" viewBox="0 0 25 25" fill="none" xmlns="http://www.w3.org/2000/svg">
<path d="M0.00569658 10.8916C-0.0486003 11.3286 0.292171 11.7144 0.732504 11.7144H3.71229C3.88551 11.7144 4.05311 11.653 4.18534 11.5411C4.31757 11.4292 4.40587 11.2741 4.43456 11.1033C5.00804 7.68798 7.68793 5.00804 11.1032 4.43461C11.274 4.40592 11.4292 4.31761 11.5411 4.18537C11.653 4.05313 11.7143 3.88551 11.7143 3.71229V0.732504C11.7143 0.292171 11.3286 -0.0486003 10.8916 0.00569658C8.14403 0.347152 5.54842 1.61761 3.58299 3.58299C1.61761 5.54842 0.347152 8.14403 0.00569658 10.8916ZM17.1668 19.0762C15.7767 20.0687 14.1466 20.5934 12.4529 20.5934C8.46752 20.5934 5.09535 17.7374 4.43461 13.8024C4.40592 13.6316 4.31762 13.4765 4.18539 13.3646C4.05316 13.2527 3.88555 13.1913 3.71234 13.1913H0.732504C0.292171 13.1913 -0.0486003 13.577 0.00569658 14.014V14.0141C0.784066 20.277 6.13519 25 12.4529 25C15.2674 25 17.929 24.0865 20.1501 22.3582C20.4978 22.0877 20.5297 21.5737 20.2182 21.2623L18.1103 19.1543C17.9877 19.0318 17.8256 18.9566 17.6529 18.9423C17.4801 18.928 17.3079 18.9754 17.1668 19.0762ZM13.8024 4.43461C17.7374 5.09535 20.5934 8.46752 20.5934 12.4529C20.5934 14.1466 20.0687 15.7766 19.0762 17.1668C18.9755 17.3079 18.9281 17.4801 18.9424 17.6528C18.9567 17.8256 19.0318 17.9877 19.1544 18.1103L21.2624 20.2183C21.5739 20.5297 22.0878 20.4978 22.3583 20.1501L22.3583 20.1501C24.0865 17.9291 25 15.2674 25 12.4529C25 6.13519 20.277 0.784066 14.0141 0.00569658H14.014C13.577 -0.0486003 13.1913 0.292171 13.1913 0.732504V3.71229C13.1913 3.88552 13.2527 4.05314 13.3646 4.18538C13.4765 4.31762 13.6316 4.40592 13.8024 4.43461Z" fill="white"/>
<path d="M12.9406 7.42011H11.9635C11.559 7.42011 11.231 7.74804 11.231 8.15253V16.6974H13.673V8.15253C13.673 7.74804 13.3451 7.42011 12.9406 7.42011ZM15.1379 16.6974H16.8475C17.2519 16.6974 17.5799 16.3694 17.5799 15.9649V10.1056C17.5799 9.70111 17.2519 9.37318 16.8475 9.37318H15.1379V16.6974ZM9.7662 11.3263H8.05849C7.65399 11.3263 7.32606 11.6542 7.32606 12.0587V15.9649C7.32606 16.3694 7.65399 16.6974 8.05849 16.6974H9.7662V11.3263Z" fill="white"/>
</svg>
