<svg width="25" height="25" viewBox="0 0 25 25" fill="none" xmlns="http://www.w3.org/2000/svg">
<path d="M14.3129 10.5302L17.6414 11.0134L15.2328 13.3612C15.1315 13.4603 15.0853 13.6026 15.1091 13.7427L15.678 17.0573L12.7004 15.4927C12.6386 15.4602 12.5698 15.4432 12.5 15.4432C12.4302 15.4432 12.3614 15.4602 12.2996 15.4927L9.32241 17.0573L9.89138 13.7427C9.90305 13.6738 9.89785 13.6031 9.87623 13.5367C9.85461 13.4702 9.81722 13.41 9.76724 13.3612L7.35862 11.0134L10.6871 10.5297C10.7562 10.5197 10.8219 10.493 10.8785 10.4519C10.935 10.4108 10.9807 10.3566 11.0116 10.294L12.4918 7.26121L13.9884 10.294C14.0193 10.3566 14.065 10.4108 14.1215 10.4519C14.1781 10.493 14.2438 10.5201 14.3129 10.5302ZM21.5517 12.5C21.5517 17.4914 17.4914 21.5517 12.5 21.5517C7.50862 21.5517 3.44828 17.4914 3.44828 12.5C3.44828 7.50862 7.50862 3.44828 12.5 3.44828C17.4914 3.44828 21.5517 7.50862 21.5517 12.5ZM18.4931 10.7371C18.4455 10.5884 18.357 10.4562 18.2377 10.3555C18.1184 10.2549 17.9731 10.1899 17.8185 10.1681L14.6612 9.70905L13.2496 6.84828C13.1073 6.56078 12.8203 6.38276 12.4996 6.38276C12.1789 6.38276 11.8922 6.56078 11.7504 6.84828L10.3388 9.70905L7.18147 10.1681C7.02691 10.1899 6.88164 10.2549 6.76232 10.3555C6.643 10.4562 6.55448 10.5884 6.5069 10.7371C6.45815 10.8852 6.45211 11.044 6.48946 11.1954C6.52682 11.3468 6.60605 11.4847 6.7181 11.5931L9.00259 13.8203L8.46379 16.9647C8.40948 17.2806 8.53707 17.594 8.79612 17.7823C8.92212 17.8742 9.07138 17.9288 9.22691 17.94C9.38245 17.9512 9.538 17.9186 9.67586 17.8457L12.5 16.3612L15.3233 17.8448C15.6078 17.9944 15.944 17.9698 16.2034 17.7819C16.3301 17.6906 16.4285 17.5655 16.4874 17.4209C16.5462 17.2763 16.5632 17.118 16.5362 16.9642L15.9966 13.8198L18.281 11.5927C18.5108 11.3694 18.5914 11.0409 18.4922 10.7362L18.4931 10.7371ZM25 12.5C25 19.3922 19.3922 25 12.5 25C5.60776 25 0 19.3922 0 12.5C0 5.60776 5.60776 0 12.5 0C19.3922 0 25 5.60776 25 12.5ZM22.4138 12.5C22.4138 7.03362 17.9664 2.58621 12.5 2.58621C7.03362 2.58621 2.58621 7.03362 2.58621 12.5C2.58621 17.9664 7.03362 22.4138 12.5 22.4138C17.9664 22.4138 22.4138 17.9664 22.4138 12.5Z" fill="white"/>
</svg>
