<svg width="25" height="25" viewBox="0 0 25 25" fill="none" xmlns="http://www.w3.org/2000/svg">
<path d="M10.3025 7.56813C4.64854 7.56813 4.79993e-07 11.4563 4.79993e-07 16.2356C4.79993e-07 18.146 0.741017 20.0876 2.09995 21.5925L0.180958 23.7855C0.0883108 23.8913 0.0281685 24.0216 0.00774605 24.1608C-0.0126764 24.3 0.0074882 24.4421 0.0658209 24.5701C0.123858 24.6983 0.217602 24.807 0.335827 24.8832C0.454052 24.9594 0.591747 25 0.732423 25H11.0349C15.2095 25 20.605 21.4052 20.605 16.2356C20.605 11.4563 15.9565 7.56813 10.3025 7.56813ZM5.85924 17.5781C5.05171 17.5781 4.39444 16.9208 4.39444 16.1133C4.39444 15.3057 5.05176 14.6485 5.85924 14.6485C6.66671 14.6485 7.32403 15.3058 7.32403 16.1133C7.32408 16.9208 6.66676 17.5781 5.85924 17.5781ZM10.3025 17.5781C9.49498 17.5781 8.8377 16.9208 8.8377 16.1133C8.8377 15.3057 9.49503 14.6485 10.3025 14.6485C11.11 14.6485 11.7673 15.3058 11.7673 16.1133C11.7673 16.9208 11.11 17.5781 10.3025 17.5781ZM14.7458 17.5781C13.9382 17.5781 13.281 16.9208 13.281 16.1133C13.281 15.3057 13.9383 14.6485 14.7458 14.6485C15.5532 14.6485 16.2106 15.3058 16.2106 16.1133C16.2106 16.9208 15.5533 17.5781 14.7458 17.5781Z" fill="white"/>
<path d="M24.8228 14.9037L23.0984 12.8917C24.3293 11.5027 24.9995 9.80895 24.9995 8.05662C24.9994 3.61419 20.728 0 15.4782 0C10.7309 0 6.69762 2.95851 5.98546 6.80923C7.31007 6.35912 8.79557 6.10326 10.3026 6.10326C16.7163 6.10326 21.9857 10.5831 22.0627 16.1132H24.2671C24.8927 16.1133 25.2287 15.3765 24.8228 14.9037Z" fill="white"/>
</svg>
