<svg width="25" height="20" viewBox="0 0 25 20" fill="none" xmlns="http://www.w3.org/2000/svg">
<path d="M24.9978 15.7487C24.9392 12.1859 24.5539 8.58306 23.9221 4.94663C23.4075 2.42011 21.5559 0.169879 18.5975 0.00507144C16.4134 -0.0930663 15.9911 1.26593 13.5165 1.23979C12.8388 1.23499 12.1615 1.23499 11.4838 1.23979C9.00874 1.26593 8.5854 -0.0930663 6.40233 0.00507144C3.44338 0.169879 1.53423 2.41425 1.07574 4.94663C0.44342 8.58306 0.0581714 12.1854 6.67413e-05 15.7482C-0.0140932 18.2288 2.22806 19.879 3.70754 19.9921C6.56541 20.2278 8.83589 14.7231 10.5658 14.7225C11.8554 14.7305 13.1444 14.7311 14.434 14.7225C16.1644 14.7225 18.4329 20.2284 21.2928 19.9926C22.7717 19.8796 25.072 18.2182 24.9983 15.7487H24.9978ZM9.32123 8.79694H7.98824V10.253C7.98824 10.8674 7.53219 11.3656 6.9697 11.3656C6.40721 11.3656 5.95116 10.8674 5.95116 10.253V8.79694H4.61817C4.05568 8.79694 3.59963 8.29878 3.59963 7.68435C3.59963 7.06992 4.05568 6.57177 4.61817 6.57177H5.95116V5.1157C5.95116 4.50127 6.40721 4.00312 6.9697 4.00312C7.53219 4.00312 7.98824 4.50127 7.98824 5.1157V6.57177H9.32123C9.88373 6.57177 10.3398 7.06992 10.3398 7.68435C10.3398 8.29878 9.88373 8.79694 9.32123 8.79694ZM17.5521 11.3651C16.7547 11.3885 16.0917 10.7005 16.0702 9.83005C16.0492 8.95641 16.6795 8.23104 17.4764 8.20864C18.2742 8.18677 18.9383 8.87427 18.9588 9.74578C18.9788 10.6173 18.3494 11.3426 17.5521 11.3651ZM19.9568 7.15953C19.1595 7.18406 18.4949 6.4955 18.473 5.62453C18.4529 4.75195 19.0823 4.02765 19.8802 4.00365C20.679 3.98072 21.3421 4.66928 21.3636 5.54079C21.3846 6.41176 20.7537 7.13766 19.9568 7.15953Z" fill="white"/>
</svg>
