<svg width="25" height="25" viewBox="0 0 25 25" fill="none" xmlns="http://www.w3.org/2000/svg">
<path d="M5.31496 4.92126C6.07598 4.92126 6.69291 4.30433 6.69291 3.54331C6.69291 2.78228 6.07598 2.16535 5.31496 2.16535C4.55394 2.16535 3.93701 2.78228 3.93701 3.54331C3.93701 4.30433 4.55394 4.92126 5.31496 4.92126Z" fill="white"/>
<path d="M19.685 4.92126C20.4461 4.92126 21.063 4.30433 21.063 3.54331C21.063 2.78228 20.4461 2.16535 19.685 2.16535C18.924 2.16535 18.3071 2.78228 18.3071 3.54331C18.3071 4.30433 18.924 4.92126 19.685 4.92126Z" fill="white"/>
<path d="M12.5 2.75591C13.261 2.75591 13.878 2.13898 13.878 1.37795C13.878 0.61693 13.261 0 12.5 0C11.739 0 11.122 0.61693 11.122 1.37795C11.122 2.13898 11.739 2.75591 12.5 2.75591Z" fill="white"/>
<path d="M18.1102 11.2205H6.88976C6.52431 11.2205 6.17382 11.3656 5.9154 11.6241C5.65699 11.8825 5.51181 12.233 5.51181 12.5984H19.4882C19.4882 12.233 19.343 11.8825 19.0846 11.6241C18.8262 11.3656 18.4757 11.2205 18.1102 11.2205ZM22.7362 13.9764H17.5854V25H22.7362C23.3366 25 23.9124 24.7615 24.337 24.337C24.7615 23.9124 25 23.3366 25 22.7362V16.2402C25 15.6398 24.7615 15.064 24.337 14.6394C23.9124 14.2149 23.3366 13.9764 22.7362 13.9764ZM23.0906 17.4339L20.7283 22.1583C20.6879 22.2392 20.6319 22.3114 20.5635 22.3707C20.4952 22.43 20.4158 22.4752 20.33 22.5039C20.2441 22.5325 20.1535 22.5439 20.0632 22.5375C19.973 22.5311 19.8849 22.507 19.8039 22.4665C19.723 22.4261 19.6508 22.3701 19.5915 22.3017C19.5322 22.2334 19.487 22.154 19.4584 22.0682C19.4297 21.9823 19.4183 21.8917 19.4247 21.8014C19.4311 21.7112 19.4552 21.6231 19.4957 21.5421L21.3583 17.815H20.111C19.9283 17.8149 19.7531 17.7422 19.624 17.613C19.4948 17.4839 19.4222 17.3087 19.422 17.126C19.422 16.9433 19.4946 16.768 19.6238 16.6388C19.7531 16.5096 19.9283 16.437 20.111 16.437H22.4732C22.5907 16.4368 22.7063 16.4667 22.809 16.5238C22.9117 16.5809 22.9981 16.6633 23.0599 16.7632C23.1218 16.8631 23.1571 16.9772 23.1624 17.0946C23.1678 17.2119 23.1431 17.3287 23.0906 17.4339ZM8.79252 25H16.2075V13.9764H8.79252V25ZM10.6295 17.126C10.6295 17.0355 10.6473 16.9458 10.6819 16.8622C10.7165 16.7785 10.7673 16.7025 10.8313 16.6385C10.8954 16.5746 10.9714 16.5238 11.0551 16.4892C11.1387 16.4547 11.2284 16.4369 11.3189 16.437H13.6811C13.7985 16.4369 13.914 16.4669 14.0166 16.5241C14.1192 16.5812 14.2055 16.6637 14.2672 16.7636C14.329 16.8635 14.3642 16.9775 14.3694 17.0948C14.3747 17.2121 14.3498 17.3288 14.2972 17.4339L11.935 22.1583C11.8956 22.2408 11.8401 22.3147 11.7717 22.3756C11.7034 22.4365 11.6236 22.4831 11.5371 22.5128C11.4505 22.5425 11.3589 22.5547 11.2676 22.5486C11.1763 22.5425 11.0871 22.5183 11.0053 22.4774C10.9234 22.4365 10.8506 22.3797 10.7909 22.3103C10.7313 22.2409 10.686 22.1603 10.6579 22.0732C10.6297 21.9861 10.6192 21.8943 10.6269 21.8032C10.6346 21.712 10.6604 21.6232 10.7028 21.5421L12.5657 17.815H11.3189C11.1362 17.815 10.9609 17.7424 10.8317 17.6132C10.7025 17.484 10.6295 17.3087 10.6295 17.126ZM0 16.2402V22.7362C0 23.3366 0.238505 23.9124 0.663046 24.337C1.08759 24.7615 1.66339 25 2.26378 25H7.41457V13.9764H2.26378C1.66339 13.9764 1.08759 14.2149 0.663046 14.6394C0.238505 15.064 0 15.6398 0 16.2402ZM4.88819 16.437C5.00563 16.4369 5.12113 16.4669 5.22373 16.5241C5.32632 16.5812 5.41259 16.6637 5.47433 16.7636C5.53608 16.8635 5.57125 16.9775 5.5765 17.0948C5.58175 17.2121 5.55691 17.3288 5.50433 17.4339L3.14213 22.1583C3.10167 22.2392 3.04567 22.3114 2.97732 22.3707C2.90897 22.43 2.8296 22.4752 2.74377 22.5039C2.65793 22.5325 2.56729 22.5439 2.47703 22.5375C2.38677 22.5311 2.29866 22.507 2.21772 22.4665C2.13678 22.4261 2.0646 22.3701 2.0053 22.3017C1.94601 22.2334 1.90076 22.154 1.87213 22.0682C1.84351 21.9823 1.83207 21.8917 1.83847 21.8014C1.84487 21.7112 1.86899 21.6231 1.90945 21.5421L3.77323 17.815H2.52598C2.34326 17.815 2.16801 17.7424 2.0388 17.6132C1.9096 17.484 1.83701 17.3087 1.83701 17.126C1.83696 17.0355 1.85474 16.9459 1.88935 16.8623C1.92395 16.7786 1.9747 16.7027 2.03869 16.6387C2.10268 16.5747 2.17865 16.524 2.26226 16.4893C2.34588 16.4547 2.43549 16.437 2.52598 16.437H4.88819ZM6.5315 9.8685C6.65023 9.85207 6.7699 9.84339 6.88976 9.84252H18.1102C18.2301 9.84339 18.3498 9.85207 18.4685 9.8685L19.2559 6.26575C18.8806 6.20592 18.5218 6.06913 18.202 5.86397C17.8821 5.65882 17.6081 5.38973 17.3972 5.07362L15.2559 6.20079L13.6953 3.85984C13.3226 4.04017 12.914 4.13384 12.5 4.13384C12.086 4.13384 11.6774 4.04017 11.3047 3.85984L9.74409 6.20079L7.60236 5.07362C7.39148 5.38973 7.11751 5.65882 6.79765 5.86397C6.47779 6.06913 6.11896 6.20592 5.7437 6.26575L6.5315 9.8685Z" fill="white"/>
</svg>
