<svg width="25" height="25" viewBox="0 0 25 25" fill="none" xmlns="http://www.w3.org/2000/svg">
<path d="M3.42476 13.5203L1.09903 14.863C0.0480544 15.4698 -0.312004 16.8136 0.294734 17.8645L1.39337 19.7674C2.0001 20.8184 3.34395 21.1785 4.39488 20.5717L6.72061 19.2289L3.42476 13.5203ZM7.45308 20.4975L5.5502 21.5961L7.19815 24.4505C7.50152 24.976 8.17344 25.156 8.69893 24.8526C9.22442 24.5493 9.40445 23.8773 9.10108 23.3519L7.45308 20.4975ZM4.55147 12.5421L8.13111 18.7423L14.1821 17.504L8.64927 7.92095L4.55147 12.5421ZM10.84 5.85615C10.6378 5.50586 10.1898 5.38584 9.83955 5.58809C9.48926 5.79033 9.36919 6.23828 9.57149 6.58857L15.7971 17.3716C15.9993 17.7219 16.4473 17.8419 16.7976 17.6396C17.1479 17.4374 17.2679 16.9895 17.0656 16.6392L10.84 5.85615ZM15.0184 9.07612C14.8605 9.62861 15.3714 10.1395 15.9239 9.98159L17.3306 9.57969C18.1029 10.0217 18.9749 10.2539 19.873 10.2539C22.7 10.2539 25 7.95395 25 5.12695C25 2.29995 22.7 0 19.873 0C17.046 0 14.7461 2.29995 14.7461 5.12695C14.7461 6.02505 14.9783 6.89712 15.4204 7.66948L15.0184 9.07612ZM19.1406 2.92969H20.6055C21.01 2.92969 21.3379 3.25762 21.3379 3.66211C21.3379 4.0666 21.01 4.39453 20.6055 4.39453H19.1406C18.7361 4.39453 18.4082 4.0666 18.4082 3.66211C18.4082 3.25762 18.7361 2.92969 19.1406 2.92969ZM19.1406 5.85937H20.6055C21.01 5.85937 21.3379 6.1873 21.3379 6.5918C21.3379 6.99629 21.01 7.32422 20.6055 7.32422H19.1406C18.7361 7.32422 18.4082 6.99629 18.4082 6.5918C18.4082 6.1873 18.7361 5.85937 19.1406 5.85937ZM21.8262 11.9141H17.8223C17.1713 11.9141 16.8438 12.6997 17.302 13.162L18.6951 14.5678C18.6666 14.7397 18.6523 14.9136 18.6523 15.0879C18.6523 16.8379 20.0761 18.2617 21.8262 18.2617C23.5762 18.2617 25 16.8379 25 15.0879C25 13.3378 23.5762 11.9141 21.8262 11.9141Z" fill="white"/>
</svg>
