<svg width="25" height="25" viewBox="0 0 25 25" fill="none" xmlns="http://www.w3.org/2000/svg">
<path d="M23.8636 11.3354C23.5622 11.3354 23.2732 11.2257 23.0601 11.0303C22.8469 10.835 22.7272 10.57 22.7272 10.2937C22.7272 7.37187 21.4863 4.62604 19.2329 2.55937C19.0198 2.36405 18.9001 2.09914 18.9001 1.82292C18.9001 1.54669 19.0198 1.28178 19.2329 1.08646C19.446 0.891137 19.735 0.781407 20.0363 0.781407C20.3377 0.781407 20.6266 0.891137 20.8397 1.08646C22.1629 2.29277 23.2119 3.72767 23.926 5.30811C24.6401 6.88854 25.0051 8.58312 24.9999 10.2937C24.9999 10.57 24.8802 10.835 24.6671 11.0303C24.454 11.2257 24.165 11.3354 23.8636 11.3354ZM1.13636 11.3354C0.834979 11.3354 0.545941 11.2257 0.332832 11.0303C0.119723 10.835 0 10.57 0 10.2937C0 6.81562 1.47727 3.54583 4.16022 1.08646C4.37329 0.891137 4.66229 0.781407 4.96363 0.781407C5.26496 0.781407 5.55396 0.891137 5.76703 1.08646C5.98011 1.28178 6.09981 1.54669 6.09981 1.82292C6.09981 2.09914 5.98011 2.36405 5.76703 2.55937C4.65565 3.57276 3.77457 4.77813 3.17477 6.10573C2.57497 7.43334 2.26837 8.8568 2.27272 10.2937C2.27272 10.57 2.153 10.835 1.93989 11.0303C1.72678 11.2257 1.43774 11.3354 1.13636 11.3354ZM23.1579 17.6177C22.3102 16.9621 21.629 16.1447 21.162 15.2225C20.6951 14.3004 20.4536 13.2958 20.4545 12.2792V9.375C20.4545 5.70937 17.4841 2.675 13.6363 2.16667V1.04167C13.6363 0.765399 13.5166 0.500448 13.3035 0.305097C13.0904 0.109747 12.8014 0 12.5 0C12.1986 0 11.9096 0.109747 11.6964 0.305097C11.4833 0.500448 11.3636 0.765399 11.3636 1.04167V2.16667C7.51476 2.675 4.54544 5.70937 4.54544 9.375V12.2792C4.54588 13.2979 4.30321 14.3044 3.83444 15.228C3.36567 16.1517 2.68215 16.9701 1.83181 17.626C1.5245 17.8689 1.30546 18.192 1.20403 18.5521C1.1026 18.9122 1.12362 19.2922 1.26428 19.641C1.40494 19.9899 1.65853 20.291 1.99107 20.5041C2.32362 20.7172 2.71926 20.8321 3.12499 20.8333H21.875C22.9715 20.8333 23.8636 20.0156 23.8636 19.0104C23.8636 18.4771 23.6102 17.9729 23.1579 17.6177ZM12.5 25C13.4818 24.9988 14.4332 24.6873 15.1937 24.118C15.9542 23.5488 16.4773 22.7566 16.675 21.875H8.32498C8.5226 22.7566 9.04576 23.5488 9.80627 24.118C10.5668 24.6873 11.5181 24.9988 12.5 25Z" fill="url(#paint0_linear_2001_594)"/>
<defs>
<linearGradient id="paint0_linear_2001_594" x1="12.0492" y1="-7.29167" x2="33.4583" y2="4.99708" gradientUnits="userSpaceOnUse">
<stop stop-color="#0E8BEA"/>
<stop offset="1" stop-color="#084E84"/>
</linearGradient>
</defs>
</svg>
