<svg width="30" height="25" viewBox="0 0 30 25" fill="none" xmlns="http://www.w3.org/2000/svg">
<path d="M27.2393 0H10.292C8.76974 0 7.53125 1.37802 7.53125 3.07387C7.53125 4.76763 8.76974 6.14566 10.292 6.14566H27.2392C28.7615 6.14566 30 4.76763 30 3.07387C30.0001 1.37796 28.7616 0 27.2393 0ZM2.76176 0C1.23897 0 0 1.37848 0 3.07283C0 4.76718 1.23897 6.14566 2.76176 6.14566C4.28456 6.14566 5.52347 4.76718 5.52347 3.07283C5.52347 1.37848 4.28456 0 2.76176 0ZM2.76176 9.42717C1.23897 9.42717 0 10.8057 0 12.5C0 14.1943 1.23897 15.5728 2.76176 15.5728C4.28456 15.5728 5.52347 14.1943 5.52347 12.5C5.52347 10.8057 4.28456 9.42717 2.76176 9.42717ZM2.76176 18.8543C1.23897 18.8543 0 20.2328 0 21.9272C0 23.6215 1.23897 25 2.76176 25C4.28456 25 5.52347 23.6215 5.52347 21.9272C5.52347 20.2328 4.28456 18.8543 2.76176 18.8543ZM27.2393 9.42717H10.292C8.76974 9.42717 7.53125 10.8052 7.53125 12.501C7.53125 14.1948 8.76974 15.5728 10.292 15.5728H27.2392C28.7615 15.5728 30 14.1948 30 12.501C30.0001 10.8051 28.7616 9.42717 27.2393 9.42717ZM27.2393 18.8543H10.292C8.76974 18.8543 7.53125 20.2324 7.53125 21.9282C7.53125 23.622 8.76974 25 10.292 25H27.2392C28.7615 25 30 23.622 30 21.9282C30.0001 20.2324 28.7616 18.8543 27.2393 18.8543Z" fill="white"/>
</svg>
