<svg width="25" height="21" viewBox="0 0 25 21" fill="none" xmlns="http://www.w3.org/2000/svg">
<path d="M21.3912 11.3375H19.4578C19.6548 11.8718 19.7625 12.4484 19.7625 13.0493V20.2852C19.7625 20.5357 19.7184 20.7762 19.6383 20.9999H22.8347C24.0287 20.9999 25 20.038 25 18.8557V14.9111C25 12.9406 23.3811 11.3375 21.3912 11.3375ZM5.23756 13.0494C5.23756 12.4484 5.34523 11.8718 5.5423 11.3375H3.60889C1.61895 11.3375 0 12.9407 0 14.9112V18.8558C0 20.0381 0.97134 21 2.16534 21H5.36173C5.27946 20.7705 5.23747 20.5287 5.23756 20.2852V13.0494ZM14.71 9.47572H10.29C8.30007 9.47572 6.68112 11.0789 6.68112 13.0494V20.2852C6.68112 20.6799 7.00426 21 7.40289 21H17.5972C17.9958 21 18.3189 20.68 18.3189 20.2852V13.0494C18.3189 11.0789 16.7 9.47572 14.71 9.47572ZM12.5 0C10.1069 0 8.15988 1.92797 8.15988 4.29783C8.15988 5.90529 9.05583 7.30918 10.379 8.04625C11.0066 8.39583 11.7301 8.59562 12.5 8.59562C13.2699 8.59562 13.9935 8.39583 14.6211 8.04625C15.9443 7.30918 16.8402 5.90524 16.8402 4.29783C16.8402 1.92802 14.8932 0 12.5 0ZM4.87882 4.00589C3.08902 4.00589 1.63296 5.44773 1.63296 7.22006C1.63296 8.9924 3.08902 10.4342 4.87882 10.4342C5.31864 10.4346 5.7539 10.346 6.15787 10.1737C6.83688 9.88424 7.39674 9.37181 7.74318 8.72994C7.99414 8.26551 8.1252 7.74681 8.12467 7.22006C8.12467 5.44778 6.66862 4.00589 4.87882 4.00589ZM20.1212 4.00589C18.3314 4.00589 16.8754 5.44773 16.8754 7.22006C16.8748 7.74681 17.0059 8.26551 17.2569 8.72994C17.6033 9.37186 18.1632 9.88429 18.8422 10.1737C19.2461 10.346 19.6814 10.4346 20.1212 10.4342C21.911 10.4342 23.3671 8.9924 23.3671 7.22006C23.3671 5.44773 21.911 4.00589 20.1212 4.00589Z" fill="white"/>
</svg>
