<svg width="25" height="25" viewBox="0 0 25 25" fill="none" xmlns="http://www.w3.org/2000/svg">
<path d="M5.35342 12.0314H0C0.0901085 8.87847 1.36821 6.0205 3.40651 3.88126L7.19194 7.63294C6.11893 8.80851 5.43802 10.3422 5.35342 12.0314ZM12.1396 5.30575V5.10035e-05C8.95827 0.0893562 6.07465 1.35611 3.91617 3.3762L7.7016 7.12788C8.88778 6.06449 10.4352 5.3896 12.1396 5.3058L12.1396 5.30575ZM5.98629 15.3273C5.61224 14.5143 5.39747 13.6383 5.35342 12.7458H0C0.0839296 15.6846 1.20035 18.367 3.00195 20.4502L5.98629 15.3273ZM21.0838 3.37615C18.9255 1.35601 16.0417 0.0893052 12.8604 0V5.3057C14.5649 5.38954 16.1123 6.06439 17.2985 7.12778L21.0838 3.37615ZM18.4661 8.47205L20.0036 7.84064C20.6986 7.55517 21.5063 7.88871 21.7924 8.5781C22.0778 9.26575 21.7427 10.0629 21.0498 10.3475L19.5138 10.9783C19.5845 11.3256 19.6289 11.6776 19.6465 12.0315H24.9999C24.9099 8.87852 23.6316 6.0206 21.5934 3.88131L17.808 7.63299C18.0481 7.89609 18.268 8.17657 18.466 8.47211L18.4661 8.47205ZM19.0137 15.3272L21.9981 20.4501C23.7997 18.367 24.9161 15.6845 25 12.7458H19.6466C19.6025 13.6382 19.3877 14.5142 19.0137 15.3272ZM21.1257 8.84984C20.9901 8.52288 20.6092 8.36524 20.2795 8.50063L16.049 10.238L16.7024 11.3595L20.7739 9.68742C21.1028 9.55234 21.2613 9.17639 21.1257 8.84984ZM21.9833 21.8537C22.3719 22.5207 22.3719 23.2843 21.9833 23.9513C21.5948 24.6183 20.9276 25 20.1505 25H4.84964C4.07249 25 3.40533 24.6182 3.01678 23.9513C2.62823 23.2842 2.62823 22.5207 3.01678 21.8537L10.6672 8.72088C11.0557 8.0539 11.7229 7.67213 12.5001 7.67213C13.2772 7.67213 13.9443 8.0539 14.3329 8.72088L21.9833 21.8537ZM20.1996 22.8743L12.5492 9.74152C12.5253 9.70054 12.4748 9.70054 12.4508 9.74152L4.80041 22.8743C4.77652 22.9154 4.80185 22.9588 4.84964 22.9588H20.1505C20.1982 22.9588 20.2235 22.9154 20.1996 22.8743ZM12.5 20.1943C12.0124 20.1943 11.6172 20.586 11.6172 21.0692C11.6172 21.5524 12.0124 21.9441 12.5 21.9441C12.9876 21.9441 13.3828 21.5524 13.3828 21.0692C13.3828 20.586 12.9876 20.1943 12.5 20.1943ZM12.8386 13.2391H12.1615C11.9846 13.2391 11.8324 13.3043 11.7112 13.432C11.59 13.5596 11.5336 13.7142 11.5443 13.8891L11.8528 18.9162C11.8608 19.0498 11.9201 19.1753 12.0184 19.267C12.1168 19.3587 12.2467 19.4097 12.3818 19.4096H12.6183C12.8989 19.4096 13.1303 19.1938 13.1473 18.9162L13.4557 13.8891C13.4664 13.7142 13.41 13.5596 13.2888 13.432C13.1676 13.3043 13.0154 13.2391 12.8386 13.2391Z" fill="white"/>
</svg>
