<svg width="25" height="25" viewBox="0 0 25 25" fill="none" xmlns="http://www.w3.org/2000/svg">
<path d="M22.8025 9.83216C22.338 8.73146 22.1155 8.17721 21.6315 7.09992L22.6386 4.98439L19.9805 2.34192L17.8923 3.34504C16.8033 2.88056 16.249 2.65808 15.16 2.1936L14.3716 0H10.6089L9.82826 2.17799C8.72365 2.64247 8.1694 2.86495 7.09602 3.32943L5 2.34192L2.34192 4.98439L3.34504 7.08821C2.88056 8.17721 2.65808 8.73146 2.1936 9.82045L0 10.6089V14.3716L2.17799 15.1522C2.64247 16.2568 2.86495 16.8111 3.32943 17.8845L2.34192 19.9805C3.67291 21.3232 3.67291 21.3232 5.01561 22.6542L7.10383 21.6511C8.19282 22.1155 8.74707 22.338 9.83607 22.822L10.6167 25H14.3794L15.16 22.822C16.2607 22.3575 16.815 22.1351 17.8923 21.6511L19.9805 22.6386C21.3232 21.3076 21.3232 21.3076 22.6542 19.9649L21.6511 17.8767C22.1155 16.7877 22.338 16.2334 22.822 15.1444L25 14.3638V10.6089L22.8025 9.83216ZM12.4902 19.2311C11.1561 19.2311 9.85191 18.8354 8.74266 18.0941C7.63342 17.3528 6.76893 16.2992 6.25855 15.0665C5.74817 13.8339 5.61483 12.4775 5.8754 11.1691C6.13596 9.86061 6.77872 8.65882 7.72238 7.71571C8.66604 6.7726 9.8682 6.13054 11.1768 5.87073C12.4854 5.61092 13.8417 5.74505 15.074 6.25614C16.3064 6.76723 17.3595 7.63233 18.1002 8.74201C18.8408 9.85169 19.2357 11.1561 19.235 12.4902C19.2339 14.2784 18.5229 15.9929 17.2581 17.257C15.9933 18.521 14.2784 19.2311 12.4902 19.2311Z" fill="white"/>
<path d="M16.8696 15.0781C16.3732 15.7773 15.7166 16.3475 14.9547 16.741C14.1928 17.1344 13.3478 17.3398 12.4902 17.3398C11.6327 17.3398 10.7877 17.1344 10.0258 16.741C9.26387 16.3475 8.60725 15.7773 8.11085 15.0781C8.48853 13.9253 9.30645 12.9685 10.3864 12.4161C11.0039 12.8455 11.7381 13.0757 12.4902 13.0757C13.2418 13.0761 13.9752 12.8443 14.5902 12.4122C15.6732 12.9637 16.4931 13.9225 16.8696 15.0781ZM14.5511 9.69945C14.5519 10.1072 14.4317 10.5061 14.2057 10.8455C13.9797 11.1849 13.6581 11.4497 13.2816 11.6062C12.9051 11.7628 12.4906 11.8042 12.0906 11.7251C11.6905 11.646 11.323 11.4501 11.0344 11.162C10.7457 10.8739 10.5491 10.5067 10.4692 10.1069C10.3894 9.70697 10.43 9.2924 10.5859 8.91559C10.7417 8.53879 11.0059 8.21669 11.3449 7.99006C11.6839 7.76344 12.0825 7.64247 12.4902 7.64247C12.7607 7.64195 13.0286 7.69478 13.2786 7.79792C13.5286 7.90107 13.7559 8.0525 13.9473 8.24356C14.1387 8.43462 14.2906 8.66156 14.3942 8.91138C14.4978 9.1612 14.5511 9.429 14.5511 9.69945Z" fill="white"/>
</svg>
