<svg width="25" height="25" viewBox="0 0 25 25" fill="none" xmlns="http://www.w3.org/2000/svg">
<path d="M10.4917 21.6833C10.4417 21.7083 10.3917 21.7333 10.3333 21.7583C10.225 21.8083 10.1167 21.825 10 21.825C9.88333 21.825 9.775 21.8 9.66667 21.7583C7.66015 20.8815 5.9529 19.4385 4.75399 17.6061C3.55509 15.7737 2.91659 13.6314 2.91667 11.4417V6.875C2.91667 6.55 3.10833 6.25 3.40833 6.11667L9.65833 3.275C9.875 3.175 10.125 3.175 10.35 3.275L16.6 6.11667C16.9 6.25 17.0917 6.55 17.0917 6.875V8.375C17.3667 8.35 17.6417 8.33333 17.925 8.33333C18.6417 8.33333 19.3417 8.43333 20.0083 8.59167V5C20.0083 4.675 19.8167 4.375 19.5167 4.24167L10.3417 0.075C10.125 -0.025 9.875 -0.025 9.65 0.075L0.491667 4.24167C0.191667 4.375 0 4.675 0 5V11.4417C0 17.1333 3.38333 22.2583 8.625 24.4833L9.675 24.9333C9.78333 24.975 9.89167 25 10 25C10.1083 25 10.225 24.975 10.325 24.9333L11.375 24.4833C11.7583 24.3167 12.1333 24.1333 12.5 23.9417C11.7083 23.3083 11.025 22.55 10.4917 21.6833Z" fill="white"/>
<path d="M15.4167 8.7V7.41667L10 4.95833L4.58333 7.41667V11.4417C4.58333 14.9917 6.54167 18.225 9.63333 19.8833C9.33333 19 9.16667 18.0583 9.16667 17.0833C9.16667 13.125 11.8083 9.78333 15.4167 8.7Z" fill="white"/>
<path d="M17.9167 10C14.0083 10 10.8333 13.175 10.8333 17.0833C10.8333 20.9917 14.0083 24.1667 17.9167 24.1667C21.825 24.1667 25 20.9917 25 17.0833C25 13.175 21.825 10 17.9167 10ZM21.275 15.9417L17.85 19.4C17.7728 19.4787 17.6808 19.5414 17.5792 19.5843C17.4777 19.6272 17.3686 19.6495 17.2583 19.65C17.0417 19.65 16.825 19.5583 16.6667 19.4083L14.5583 17.3C14.2333 16.975 14.2333 16.45 14.5583 16.1167C14.8833 15.7917 15.4083 15.7917 15.7417 16.1167L17.2583 17.6333L20.0917 14.775C20.1682 14.6968 20.2597 14.6347 20.3605 14.5924C20.4614 14.55 20.5697 14.5281 20.6792 14.5281C20.7886 14.5281 20.8969 14.55 20.9978 14.5924C21.0987 14.6347 21.1901 14.6968 21.2667 14.775C21.5917 15.1 21.6 15.625 21.2667 15.95L21.275 15.9417Z" fill="white"/>
</svg>
