<svg width="23" height="23" viewBox="0 0 23 23" fill="none" xmlns="http://www.w3.org/2000/svg">
<path d="M11.4583 0C9.19209 0 6.97674 0.672019 5.09243 1.93108C3.20812 3.19014 1.73947 4.97968 0.872219 7.07342C0.00496476 9.16716 -0.221949 11.471 0.220174 13.6937C0.662296 15.9164 1.7536 17.9581 3.35607 19.5606C4.95855 21.1631 7.00023 22.2544 9.22293 22.6965C11.4456 23.1386 13.7495 22.9117 15.8433 22.0445C17.937 21.1772 19.7265 19.7086 20.9856 17.8242C22.2447 15.9399 22.9167 13.7246 22.9167 11.4583C22.9167 8.4194 21.7095 5.50492 19.5606 3.35607C17.4118 1.20721 14.4973 0 11.4583 0ZM6.25001 8.33333H14.1563L13.8438 8.03125C13.6476 7.8351 13.5374 7.56906 13.5374 7.29167C13.5374 7.15431 13.5645 7.01831 13.617 6.89141C13.6696 6.76451 13.7466 6.64921 13.8438 6.55208C13.9409 6.45496 14.0562 6.37792 14.1831 6.32536C14.31 6.27279 14.446 6.24574 14.5833 6.24574C14.8607 6.24574 15.1268 6.35593 15.3229 6.55208L17.4063 8.63542C17.5508 8.7819 17.6487 8.96791 17.6876 9.16999C17.7266 9.37206 17.7048 9.58114 17.625 9.77083C17.5469 9.96106 17.4142 10.1239 17.2436 10.2388C17.0731 10.3538 16.8723 10.4156 16.6667 10.4167H6.25001C5.97374 10.4167 5.70879 10.3069 5.51344 10.1116C5.31809 9.91622 5.20834 9.65127 5.20834 9.375C5.20834 9.09873 5.31809 8.83378 5.51344 8.63843C5.70879 8.44308 5.97374 8.33333 6.25001 8.33333ZM16.6667 14.5833H8.76042L9.07292 14.8854C9.17056 14.9823 9.24805 15.0975 9.30093 15.2244C9.35382 15.3513 9.38105 15.4875 9.38105 15.625C9.38105 15.7625 9.35382 15.8987 9.30093 16.0256C9.24805 16.1525 9.17056 16.2677 9.07292 16.3646C8.97609 16.4622 8.86088 16.5397 8.73394 16.5926C8.607 16.6455 8.47085 16.6727 8.33334 16.6727C8.19583 16.6727 8.05968 16.6455 7.93274 16.5926C7.8058 16.5397 7.69059 16.4622 7.59376 16.3646L5.51042 14.2813C5.36588 14.1348 5.26797 13.9488 5.22904 13.7467C5.19011 13.5446 5.2119 13.3355 5.29167 13.1458C5.36982 12.9556 5.50252 12.7928 5.67307 12.6778C5.84361 12.5629 6.04435 12.501 6.25001 12.5H16.6667C16.9429 12.5 17.2079 12.6097 17.4032 12.8051C17.5986 13.0004 17.7083 13.2654 17.7083 13.5417C17.7083 13.8179 17.5986 14.0829 17.4032 14.2782C17.2079 14.4736 16.9429 14.5833 16.6667 14.5833Z" fill="white"/>
</svg>
